<mxfile host="app.diagrams.net" agent="Mozilla/5.0 (X11; Ubuntu; Linux x86_64; rv:137.0) Gecko/20100101 Firefox/137.0" version="26.2.12">
  <diagram name="PÃ¡gina-1" id="7upKs60wiecCJluCS9YO">
    <mxGraphModel dx="1304" dy="666" grid="1" gridSize="10" guides="1" tooltips="1" connect="1" arrows="1" fold="1" page="1" pageScale="1" pageWidth="1169" pageHeight="1654" math="0" shadow="0">
      <root>
        <mxCell id="0" />
        <mxCell id="1" parent="0" />
        <mxCell id="Eok7o8EGHVfPVGbyOx8k-1" value="obra" style="shape=table;startSize=30;container=1;collapsible=1;childLayout=tableLayout;fixedRows=1;rowLines=0;fontStyle=1;align=center;resizeLast=1;html=1;labelBackgroundColor=none;fillColor=#F5AB50;strokeColor=default;fontColor=#1A1A1A;" vertex="1" parent="1">
          <mxGeometry x="600" y="365" width="180" height="90" as="geometry" />
        </mxCell>
        <mxCell id="Eok7o8EGHVfPVGbyOx8k-2" value="" style="shape=tableRow;horizontal=0;startSize=0;swimlaneHead=0;swimlaneBody=0;fillColor=none;collapsible=0;dropTarget=0;points=[[0,0.5],[1,0.5]];portConstraint=eastwest;top=0;left=0;right=0;bottom=1;labelBackgroundColor=none;strokeColor=default;fontColor=#1A1A1A;" vertex="1" parent="Eok7o8EGHVfPVGbyOx8k-1">
          <mxGeometry y="30" width="180" height="30" as="geometry" />
        </mxCell>
        <mxCell id="Eok7o8EGHVfPVGbyOx8k-3" value="PK" style="shape=partialRectangle;connectable=0;fillColor=none;top=0;left=0;bottom=0;right=0;fontStyle=1;overflow=hidden;whiteSpace=wrap;html=1;labelBackgroundColor=none;strokeColor=default;fontColor=#1A1A1A;" vertex="1" parent="Eok7o8EGHVfPVGbyOx8k-2">
          <mxGeometry width="30" height="30" as="geometry">
            <mxRectangle width="30" height="30" as="alternateBounds" />
          </mxGeometry>
        </mxCell>
        <mxCell id="Eok7o8EGHVfPVGbyOx8k-4" value="obra_id" style="shape=partialRectangle;connectable=0;fillColor=none;top=0;left=0;bottom=0;right=0;align=left;spacingLeft=6;fontStyle=5;overflow=hidden;whiteSpace=wrap;html=1;labelBackgroundColor=none;strokeColor=default;fontColor=#1A1A1A;" vertex="1" parent="Eok7o8EGHVfPVGbyOx8k-2">
          <mxGeometry x="30" width="150" height="30" as="geometry">
            <mxRectangle width="150" height="30" as="alternateBounds" />
          </mxGeometry>
        </mxCell>
        <mxCell id="Eok7o8EGHVfPVGbyOx8k-5" value="" style="shape=tableRow;horizontal=0;startSize=0;swimlaneHead=0;swimlaneBody=0;fillColor=none;collapsible=0;dropTarget=0;points=[[0,0.5],[1,0.5]];portConstraint=eastwest;top=0;left=0;right=0;bottom=0;labelBackgroundColor=none;strokeColor=default;fontColor=#1A1A1A;" vertex="1" parent="Eok7o8EGHVfPVGbyOx8k-1">
          <mxGeometry y="60" width="180" height="30" as="geometry" />
        </mxCell>
        <mxCell id="Eok7o8EGHVfPVGbyOx8k-6" value="" style="shape=partialRectangle;connectable=0;fillColor=none;top=0;left=0;bottom=0;right=0;editable=1;overflow=hidden;whiteSpace=wrap;html=1;labelBackgroundColor=none;strokeColor=default;fontColor=#1A1A1A;" vertex="1" parent="Eok7o8EGHVfPVGbyOx8k-5">
          <mxGeometry width="30" height="30" as="geometry">
            <mxRectangle width="30" height="30" as="alternateBounds" />
          </mxGeometry>
        </mxCell>
        <mxCell id="Eok7o8EGHVfPVGbyOx8k-7" value="obra_nome" style="shape=partialRectangle;connectable=0;fillColor=none;top=0;left=0;bottom=0;right=0;align=left;spacingLeft=6;overflow=hidden;whiteSpace=wrap;html=1;labelBackgroundColor=none;strokeColor=default;fontColor=#1A1A1A;" vertex="1" parent="Eok7o8EGHVfPVGbyOx8k-5">
          <mxGeometry x="30" width="150" height="30" as="geometry">
            <mxRectangle width="150" height="30" as="alternateBounds" />
          </mxGeometry>
        </mxCell>
        <mxCell id="Eok7o8EGHVfPVGbyOx8k-14" value="genero" style="shape=table;startSize=30;container=1;collapsible=1;childLayout=tableLayout;fixedRows=1;rowLines=0;fontStyle=1;align=center;resizeLast=1;html=1;labelBackgroundColor=none;fillColor=#F5AB50;strokeColor=default;fontColor=#1A1A1A;" vertex="1" parent="1">
          <mxGeometry x="360" y="365" width="180" height="90" as="geometry" />
        </mxCell>
        <mxCell id="Eok7o8EGHVfPVGbyOx8k-15" value="" style="shape=tableRow;horizontal=0;startSize=0;swimlaneHead=0;swimlaneBody=0;fillColor=none;collapsible=0;dropTarget=0;points=[[0,0.5],[1,0.5]];portConstraint=eastwest;top=0;left=0;right=0;bottom=1;labelBackgroundColor=none;strokeColor=default;fontColor=#1A1A1A;" vertex="1" parent="Eok7o8EGHVfPVGbyOx8k-14">
          <mxGeometry y="30" width="180" height="30" as="geometry" />
        </mxCell>
        <mxCell id="Eok7o8EGHVfPVGbyOx8k-16" value="PK" style="shape=partialRectangle;connectable=0;fillColor=none;top=0;left=0;bottom=0;right=0;fontStyle=1;overflow=hidden;whiteSpace=wrap;html=1;labelBackgroundColor=none;strokeColor=default;fontColor=#1A1A1A;" vertex="1" parent="Eok7o8EGHVfPVGbyOx8k-15">
          <mxGeometry width="30" height="30" as="geometry">
            <mxRectangle width="30" height="30" as="alternateBounds" />
          </mxGeometry>
        </mxCell>
        <mxCell id="Eok7o8EGHVfPVGbyOx8k-17" value="genero_id" style="shape=partialRectangle;connectable=0;fillColor=none;top=0;left=0;bottom=0;right=0;align=left;spacingLeft=6;fontStyle=5;overflow=hidden;whiteSpace=wrap;html=1;labelBackgroundColor=none;strokeColor=default;fontColor=#1A1A1A;" vertex="1" parent="Eok7o8EGHVfPVGbyOx8k-15">
          <mxGeometry x="30" width="150" height="30" as="geometry">
            <mxRectangle width="150" height="30" as="alternateBounds" />
          </mxGeometry>
        </mxCell>
        <mxCell id="Eok7o8EGHVfPVGbyOx8k-18" value="" style="shape=tableRow;horizontal=0;startSize=0;swimlaneHead=0;swimlaneBody=0;fillColor=none;collapsible=0;dropTarget=0;points=[[0,0.5],[1,0.5]];portConstraint=eastwest;top=0;left=0;right=0;bottom=0;labelBackgroundColor=none;strokeColor=default;fontColor=#1A1A1A;" vertex="1" parent="Eok7o8EGHVfPVGbyOx8k-14">
          <mxGeometry y="60" width="180" height="30" as="geometry" />
        </mxCell>
        <mxCell id="Eok7o8EGHVfPVGbyOx8k-19" value="" style="shape=partialRectangle;connectable=0;fillColor=none;top=0;left=0;bottom=0;right=0;editable=1;overflow=hidden;whiteSpace=wrap;html=1;labelBackgroundColor=none;strokeColor=default;fontColor=#1A1A1A;" vertex="1" parent="Eok7o8EGHVfPVGbyOx8k-18">
          <mxGeometry width="30" height="30" as="geometry">
            <mxRectangle width="30" height="30" as="alternateBounds" />
          </mxGeometry>
        </mxCell>
        <mxCell id="Eok7o8EGHVfPVGbyOx8k-20" value="genero_nome" style="shape=partialRectangle;connectable=0;fillColor=none;top=0;left=0;bottom=0;right=0;align=left;spacingLeft=6;overflow=hidden;whiteSpace=wrap;html=1;labelBackgroundColor=none;strokeColor=default;fontColor=#1A1A1A;" vertex="1" parent="Eok7o8EGHVfPVGbyOx8k-18">
          <mxGeometry x="30" width="150" height="30" as="geometry">
            <mxRectangle width="150" height="30" as="alternateBounds" />
          </mxGeometry>
        </mxCell>
        <mxCell id="Eok7o8EGHVfPVGbyOx8k-40" value="exemplar&lt;span style=&quot;white-space: pre;&quot;&gt;&#x9;&lt;/span&gt;&amp;nbsp; " style="shape=table;startSize=30;container=1;collapsible=1;childLayout=tableLayout;fixedRows=1;rowLines=0;fontStyle=1;align=center;resizeLast=1;html=1;labelBackgroundColor=none;fillColor=#F5AB50;strokeColor=default;fontColor=#1A1A1A;" vertex="1" parent="1">
          <mxGeometry x="600" y="220" width="180" height="120" as="geometry" />
        </mxCell>
        <mxCell id="Eok7o8EGHVfPVGbyOx8k-41" value="" style="shape=tableRow;horizontal=0;startSize=0;swimlaneHead=0;swimlaneBody=0;fillColor=none;collapsible=0;dropTarget=0;points=[[0,0.5],[1,0.5]];portConstraint=eastwest;top=0;left=0;right=0;bottom=1;labelBackgroundColor=none;strokeColor=default;fontColor=#1A1A1A;" vertex="1" parent="Eok7o8EGHVfPVGbyOx8k-40">
          <mxGeometry y="30" width="180" height="30" as="geometry" />
        </mxCell>
        <mxCell id="Eok7o8EGHVfPVGbyOx8k-42" value="PK" style="shape=partialRectangle;connectable=0;fillColor=none;top=0;left=0;bottom=0;right=0;fontStyle=1;overflow=hidden;whiteSpace=wrap;html=1;labelBackgroundColor=none;strokeColor=default;fontColor=#1A1A1A;" vertex="1" parent="Eok7o8EGHVfPVGbyOx8k-41">
          <mxGeometry width="30" height="30" as="geometry">
            <mxRectangle width="30" height="30" as="alternateBounds" />
          </mxGeometry>
        </mxCell>
        <mxCell id="Eok7o8EGHVfPVGbyOx8k-43" value="exemplar_id" style="shape=partialRectangle;connectable=0;fillColor=none;top=0;left=0;bottom=0;right=0;align=left;spacingLeft=6;fontStyle=5;overflow=hidden;whiteSpace=wrap;html=1;labelBackgroundColor=none;strokeColor=default;fontColor=#1A1A1A;" vertex="1" parent="Eok7o8EGHVfPVGbyOx8k-41">
          <mxGeometry x="30" width="150" height="30" as="geometry">
            <mxRectangle width="150" height="30" as="alternateBounds" />
          </mxGeometry>
        </mxCell>
        <mxCell id="Eok7o8EGHVfPVGbyOx8k-44" value="" style="shape=tableRow;horizontal=0;startSize=0;swimlaneHead=0;swimlaneBody=0;fillColor=none;collapsible=0;dropTarget=0;points=[[0,0.5],[1,0.5]];portConstraint=eastwest;top=0;left=0;right=0;bottom=0;labelBackgroundColor=none;strokeColor=default;fontColor=#1A1A1A;" vertex="1" parent="Eok7o8EGHVfPVGbyOx8k-40">
          <mxGeometry y="60" width="180" height="30" as="geometry" />
        </mxCell>
        <mxCell id="Eok7o8EGHVfPVGbyOx8k-45" value="" style="shape=partialRectangle;connectable=0;fillColor=none;top=0;left=0;bottom=0;right=0;editable=1;overflow=hidden;whiteSpace=wrap;html=1;labelBackgroundColor=none;strokeColor=default;fontColor=#1A1A1A;" vertex="1" parent="Eok7o8EGHVfPVGbyOx8k-44">
          <mxGeometry width="30" height="30" as="geometry">
            <mxRectangle width="30" height="30" as="alternateBounds" />
          </mxGeometry>
        </mxCell>
        <mxCell id="Eok7o8EGHVfPVGbyOx8k-46" value="exemplar_nome" style="shape=partialRectangle;connectable=0;fillColor=none;top=0;left=0;bottom=0;right=0;align=left;spacingLeft=6;overflow=hidden;whiteSpace=wrap;html=1;labelBackgroundColor=none;strokeColor=default;fontColor=#1A1A1A;" vertex="1" parent="Eok7o8EGHVfPVGbyOx8k-44">
          <mxGeometry x="30" width="150" height="30" as="geometry">
            <mxRectangle width="150" height="30" as="alternateBounds" />
          </mxGeometry>
        </mxCell>
        <mxCell id="Eok7o8EGHVfPVGbyOx8k-47" value="" style="shape=tableRow;horizontal=0;startSize=0;swimlaneHead=0;swimlaneBody=0;fillColor=none;collapsible=0;dropTarget=0;points=[[0,0.5],[1,0.5]];portConstraint=eastwest;top=0;left=0;right=0;bottom=0;labelBackgroundColor=none;strokeColor=default;fontColor=#1A1A1A;" vertex="1" parent="Eok7o8EGHVfPVGbyOx8k-40">
          <mxGeometry y="90" width="180" height="30" as="geometry" />
        </mxCell>
        <mxCell id="Eok7o8EGHVfPVGbyOx8k-48" value="" style="shape=partialRectangle;connectable=0;fillColor=none;top=0;left=0;bottom=0;right=0;editable=1;overflow=hidden;whiteSpace=wrap;html=1;labelBackgroundColor=none;strokeColor=default;fontColor=#1A1A1A;" vertex="1" parent="Eok7o8EGHVfPVGbyOx8k-47">
          <mxGeometry width="30" height="30" as="geometry">
            <mxRectangle width="30" height="30" as="alternateBounds" />
          </mxGeometry>
        </mxCell>
        <mxCell id="Eok7o8EGHVfPVGbyOx8k-49" value="exemplar_status" style="shape=partialRectangle;connectable=0;fillColor=none;top=0;left=0;bottom=0;right=0;align=left;spacingLeft=6;overflow=hidden;whiteSpace=wrap;html=1;labelBackgroundColor=none;strokeColor=default;fontColor=#1A1A1A;" vertex="1" parent="Eok7o8EGHVfPVGbyOx8k-47">
          <mxGeometry x="30" width="150" height="30" as="geometry">
            <mxRectangle width="150" height="30" as="alternateBounds" />
          </mxGeometry>
        </mxCell>
        <mxCell id="Eok7o8EGHVfPVGbyOx8k-53" value="emprestimo" style="shape=table;startSize=30;container=1;collapsible=1;childLayout=tableLayout;fixedRows=1;rowLines=0;fontStyle=1;align=center;resizeLast=1;html=1;labelBackgroundColor=none;fillColor=#F5AB50;strokeColor=default;fontColor=#1A1A1A;" vertex="1" parent="1">
          <mxGeometry x="890" y="200" width="180" height="120" as="geometry" />
        </mxCell>
        <mxCell id="Eok7o8EGHVfPVGbyOx8k-54" value="" style="shape=tableRow;horizontal=0;startSize=0;swimlaneHead=0;swimlaneBody=0;fillColor=none;collapsible=0;dropTarget=0;points=[[0,0.5],[1,0.5]];portConstraint=eastwest;top=0;left=0;right=0;bottom=1;labelBackgroundColor=none;strokeColor=default;fontColor=#1A1A1A;" vertex="1" parent="Eok7o8EGHVfPVGbyOx8k-53">
          <mxGeometry y="30" width="180" height="30" as="geometry" />
        </mxCell>
        <mxCell id="Eok7o8EGHVfPVGbyOx8k-55" value="PK" style="shape=partialRectangle;connectable=0;fillColor=none;top=0;left=0;bottom=0;right=0;fontStyle=1;overflow=hidden;whiteSpace=wrap;html=1;labelBackgroundColor=none;strokeColor=default;fontColor=#1A1A1A;" vertex="1" parent="Eok7o8EGHVfPVGbyOx8k-54">
          <mxGeometry width="30" height="30" as="geometry">
            <mxRectangle width="30" height="30" as="alternateBounds" />
          </mxGeometry>
        </mxCell>
        <mxCell id="Eok7o8EGHVfPVGbyOx8k-56" value="emprestimo_id" style="shape=partialRectangle;connectable=0;fillColor=none;top=0;left=0;bottom=0;right=0;align=left;spacingLeft=6;fontStyle=5;overflow=hidden;whiteSpace=wrap;html=1;labelBackgroundColor=none;strokeColor=default;fontColor=#1A1A1A;" vertex="1" parent="Eok7o8EGHVfPVGbyOx8k-54">
          <mxGeometry x="30" width="150" height="30" as="geometry">
            <mxRectangle width="150" height="30" as="alternateBounds" />
          </mxGeometry>
        </mxCell>
        <mxCell id="Eok7o8EGHVfPVGbyOx8k-57" value="" style="shape=tableRow;horizontal=0;startSize=0;swimlaneHead=0;swimlaneBody=0;fillColor=none;collapsible=0;dropTarget=0;points=[[0,0.5],[1,0.5]];portConstraint=eastwest;top=0;left=0;right=0;bottom=0;labelBackgroundColor=none;strokeColor=default;fontColor=#1A1A1A;" vertex="1" parent="Eok7o8EGHVfPVGbyOx8k-53">
          <mxGeometry y="60" width="180" height="30" as="geometry" />
        </mxCell>
        <mxCell id="Eok7o8EGHVfPVGbyOx8k-58" value="" style="shape=partialRectangle;connectable=0;fillColor=none;top=0;left=0;bottom=0;right=0;editable=1;overflow=hidden;whiteSpace=wrap;html=1;labelBackgroundColor=none;strokeColor=default;fontColor=#1A1A1A;" vertex="1" parent="Eok7o8EGHVfPVGbyOx8k-57">
          <mxGeometry width="30" height="30" as="geometry">
            <mxRectangle width="30" height="30" as="alternateBounds" />
          </mxGeometry>
        </mxCell>
        <mxCell id="Eok7o8EGHVfPVGbyOx8k-59" value="emprestimo_dataInicio" style="shape=partialRectangle;connectable=0;fillColor=none;top=0;left=0;bottom=0;right=0;align=left;spacingLeft=6;overflow=hidden;whiteSpace=wrap;html=1;labelBackgroundColor=none;strokeColor=default;fontColor=#1A1A1A;" vertex="1" parent="Eok7o8EGHVfPVGbyOx8k-57">
          <mxGeometry x="30" width="150" height="30" as="geometry">
            <mxRectangle width="150" height="30" as="alternateBounds" />
          </mxGeometry>
        </mxCell>
        <mxCell id="Eok7o8EGHVfPVGbyOx8k-63" value="" style="shape=tableRow;horizontal=0;startSize=0;swimlaneHead=0;swimlaneBody=0;fillColor=none;collapsible=0;dropTarget=0;points=[[0,0.5],[1,0.5]];portConstraint=eastwest;top=0;left=0;right=0;bottom=0;labelBackgroundColor=none;strokeColor=default;fontColor=#1A1A1A;" vertex="1" parent="Eok7o8EGHVfPVGbyOx8k-53">
          <mxGeometry y="90" width="180" height="30" as="geometry" />
        </mxCell>
        <mxCell id="Eok7o8EGHVfPVGbyOx8k-64" value="" style="shape=partialRectangle;connectable=0;fillColor=none;top=0;left=0;bottom=0;right=0;editable=1;overflow=hidden;whiteSpace=wrap;html=1;labelBackgroundColor=none;strokeColor=default;fontColor=#1A1A1A;" vertex="1" parent="Eok7o8EGHVfPVGbyOx8k-63">
          <mxGeometry width="30" height="30" as="geometry">
            <mxRectangle width="30" height="30" as="alternateBounds" />
          </mxGeometry>
        </mxCell>
        <mxCell id="Eok7o8EGHVfPVGbyOx8k-65" value="emprestimo_dataFinal" style="shape=partialRectangle;connectable=0;fillColor=none;top=0;left=0;bottom=0;right=0;align=left;spacingLeft=6;overflow=hidden;whiteSpace=wrap;html=1;labelBackgroundColor=none;strokeColor=default;fontColor=#1A1A1A;" vertex="1" parent="Eok7o8EGHVfPVGbyOx8k-63">
          <mxGeometry x="30" width="150" height="30" as="geometry">
            <mxRectangle width="150" height="30" as="alternateBounds" />
          </mxGeometry>
        </mxCell>
        <mxCell id="Eok7o8EGHVfPVGbyOx8k-66" value="colaborador" style="shape=table;startSize=30;container=1;collapsible=1;childLayout=tableLayout;fixedRows=1;rowLines=0;fontStyle=1;align=center;resizeLast=1;html=1;labelBackgroundColor=none;fillColor=#F5AB50;strokeColor=default;fontColor=#1A1A1A;" vertex="1" parent="1">
          <mxGeometry x="1215" y="280" width="180" height="120" as="geometry" />
        </mxCell>
        <mxCell id="Eok7o8EGHVfPVGbyOx8k-67" value="" style="shape=tableRow;horizontal=0;startSize=0;swimlaneHead=0;swimlaneBody=0;fillColor=none;collapsible=0;dropTarget=0;points=[[0,0.5],[1,0.5]];portConstraint=eastwest;top=0;left=0;right=0;bottom=1;labelBackgroundColor=none;strokeColor=default;fontColor=#1A1A1A;" vertex="1" parent="Eok7o8EGHVfPVGbyOx8k-66">
          <mxGeometry y="30" width="180" height="30" as="geometry" />
        </mxCell>
        <mxCell id="Eok7o8EGHVfPVGbyOx8k-68" value="PK" style="shape=partialRectangle;connectable=0;fillColor=none;top=0;left=0;bottom=0;right=0;fontStyle=1;overflow=hidden;whiteSpace=wrap;html=1;labelBackgroundColor=none;strokeColor=default;fontColor=#1A1A1A;" vertex="1" parent="Eok7o8EGHVfPVGbyOx8k-67">
          <mxGeometry width="30" height="30" as="geometry">
            <mxRectangle width="30" height="30" as="alternateBounds" />
          </mxGeometry>
        </mxCell>
        <mxCell id="Eok7o8EGHVfPVGbyOx8k-69" value="colaborador_cpf" style="shape=partialRectangle;connectable=0;fillColor=none;top=0;left=0;bottom=0;right=0;align=left;spacingLeft=6;fontStyle=5;overflow=hidden;whiteSpace=wrap;html=1;labelBackgroundColor=none;strokeColor=default;fontColor=#1A1A1A;" vertex="1" parent="Eok7o8EGHVfPVGbyOx8k-67">
          <mxGeometry x="30" width="150" height="30" as="geometry">
            <mxRectangle width="150" height="30" as="alternateBounds" />
          </mxGeometry>
        </mxCell>
        <mxCell id="Eok7o8EGHVfPVGbyOx8k-70" value="" style="shape=tableRow;horizontal=0;startSize=0;swimlaneHead=0;swimlaneBody=0;fillColor=none;collapsible=0;dropTarget=0;points=[[0,0.5],[1,0.5]];portConstraint=eastwest;top=0;left=0;right=0;bottom=0;labelBackgroundColor=none;strokeColor=default;fontColor=#1A1A1A;" vertex="1" parent="Eok7o8EGHVfPVGbyOx8k-66">
          <mxGeometry y="60" width="180" height="30" as="geometry" />
        </mxCell>
        <mxCell id="Eok7o8EGHVfPVGbyOx8k-71" value="" style="shape=partialRectangle;connectable=0;fillColor=none;top=0;left=0;bottom=0;right=0;editable=1;overflow=hidden;whiteSpace=wrap;html=1;labelBackgroundColor=none;strokeColor=default;fontColor=#1A1A1A;" vertex="1" parent="Eok7o8EGHVfPVGbyOx8k-70">
          <mxGeometry width="30" height="30" as="geometry">
            <mxRectangle width="30" height="30" as="alternateBounds" />
          </mxGeometry>
        </mxCell>
        <mxCell id="Eok7o8EGHVfPVGbyOx8k-72" value="colaborador_nome" style="shape=partialRectangle;connectable=0;fillColor=none;top=0;left=0;bottom=0;right=0;align=left;spacingLeft=6;overflow=hidden;whiteSpace=wrap;html=1;labelBackgroundColor=none;strokeColor=default;fontColor=#1A1A1A;" vertex="1" parent="Eok7o8EGHVfPVGbyOx8k-70">
          <mxGeometry x="30" width="150" height="30" as="geometry">
            <mxRectangle width="150" height="30" as="alternateBounds" />
          </mxGeometry>
        </mxCell>
        <mxCell id="Eok7o8EGHVfPVGbyOx8k-73" value="" style="shape=tableRow;horizontal=0;startSize=0;swimlaneHead=0;swimlaneBody=0;fillColor=none;collapsible=0;dropTarget=0;points=[[0,0.5],[1,0.5]];portConstraint=eastwest;top=0;left=0;right=0;bottom=0;labelBackgroundColor=none;strokeColor=default;fontColor=#1A1A1A;" vertex="1" parent="Eok7o8EGHVfPVGbyOx8k-66">
          <mxGeometry y="90" width="180" height="30" as="geometry" />
        </mxCell>
        <mxCell id="Eok7o8EGHVfPVGbyOx8k-74" value="" style="shape=partialRectangle;connectable=0;fillColor=none;top=0;left=0;bottom=0;right=0;editable=1;overflow=hidden;whiteSpace=wrap;html=1;labelBackgroundColor=none;strokeColor=default;fontColor=#1A1A1A;" vertex="1" parent="Eok7o8EGHVfPVGbyOx8k-73">
          <mxGeometry width="30" height="30" as="geometry">
            <mxRectangle width="30" height="30" as="alternateBounds" />
          </mxGeometry>
        </mxCell>
        <mxCell id="Eok7o8EGHVfPVGbyOx8k-75" value="colaborador_contato" style="shape=partialRectangle;connectable=0;fillColor=none;top=0;left=0;bottom=0;right=0;align=left;spacingLeft=6;overflow=hidden;whiteSpace=wrap;html=1;labelBackgroundColor=none;strokeColor=default;fontColor=#1A1A1A;" vertex="1" parent="Eok7o8EGHVfPVGbyOx8k-73">
          <mxGeometry x="30" width="150" height="30" as="geometry">
            <mxRectangle width="150" height="30" as="alternateBounds" />
          </mxGeometry>
        </mxCell>
        <mxCell id="Eok7o8EGHVfPVGbyOx8k-92" value="autor" style="shape=table;startSize=30;container=1;collapsible=1;childLayout=tableLayout;fixedRows=1;rowLines=0;fontStyle=1;align=center;resizeLast=1;html=1;labelBackgroundColor=none;fillColor=#F5AB50;strokeColor=default;fontColor=#1A1A1A;" vertex="1" parent="1">
          <mxGeometry x="840" y="510" width="180" height="90" as="geometry" />
        </mxCell>
        <mxCell id="Eok7o8EGHVfPVGbyOx8k-93" value="" style="shape=tableRow;horizontal=0;startSize=0;swimlaneHead=0;swimlaneBody=0;fillColor=none;collapsible=0;dropTarget=0;points=[[0,0.5],[1,0.5]];portConstraint=eastwest;top=0;left=0;right=0;bottom=1;labelBackgroundColor=none;strokeColor=default;fontColor=#1A1A1A;" vertex="1" parent="Eok7o8EGHVfPVGbyOx8k-92">
          <mxGeometry y="30" width="180" height="30" as="geometry" />
        </mxCell>
        <mxCell id="Eok7o8EGHVfPVGbyOx8k-94" value="PK" style="shape=partialRectangle;connectable=0;fillColor=none;top=0;left=0;bottom=0;right=0;fontStyle=1;overflow=hidden;whiteSpace=wrap;html=1;labelBackgroundColor=none;strokeColor=default;fontColor=#1A1A1A;" vertex="1" parent="Eok7o8EGHVfPVGbyOx8k-93">
          <mxGeometry width="30" height="30" as="geometry">
            <mxRectangle width="30" height="30" as="alternateBounds" />
          </mxGeometry>
        </mxCell>
        <mxCell id="Eok7o8EGHVfPVGbyOx8k-95" value="autor_id" style="shape=partialRectangle;connectable=0;fillColor=none;top=0;left=0;bottom=0;right=0;align=left;spacingLeft=6;fontStyle=5;overflow=hidden;whiteSpace=wrap;html=1;labelBackgroundColor=none;strokeColor=default;fontColor=#1A1A1A;" vertex="1" parent="Eok7o8EGHVfPVGbyOx8k-93">
          <mxGeometry x="30" width="150" height="30" as="geometry">
            <mxRectangle width="150" height="30" as="alternateBounds" />
          </mxGeometry>
        </mxCell>
        <mxCell id="Eok7o8EGHVfPVGbyOx8k-96" value="" style="shape=tableRow;horizontal=0;startSize=0;swimlaneHead=0;swimlaneBody=0;fillColor=none;collapsible=0;dropTarget=0;points=[[0,0.5],[1,0.5]];portConstraint=eastwest;top=0;left=0;right=0;bottom=0;labelBackgroundColor=none;strokeColor=default;fontColor=#1A1A1A;" vertex="1" parent="Eok7o8EGHVfPVGbyOx8k-92">
          <mxGeometry y="60" width="180" height="30" as="geometry" />
        </mxCell>
        <mxCell id="Eok7o8EGHVfPVGbyOx8k-97" value="" style="shape=partialRectangle;connectable=0;fillColor=none;top=0;left=0;bottom=0;right=0;editable=1;overflow=hidden;whiteSpace=wrap;html=1;labelBackgroundColor=none;strokeColor=default;fontColor=#1A1A1A;" vertex="1" parent="Eok7o8EGHVfPVGbyOx8k-96">
          <mxGeometry width="30" height="30" as="geometry">
            <mxRectangle width="30" height="30" as="alternateBounds" />
          </mxGeometry>
        </mxCell>
        <mxCell id="Eok7o8EGHVfPVGbyOx8k-98" value="autor_nome" style="shape=partialRectangle;connectable=0;fillColor=none;top=0;left=0;bottom=0;right=0;align=left;spacingLeft=6;overflow=hidden;whiteSpace=wrap;html=1;labelBackgroundColor=none;strokeColor=default;fontColor=#1A1A1A;" vertex="1" parent="Eok7o8EGHVfPVGbyOx8k-96">
          <mxGeometry x="30" width="150" height="30" as="geometry">
            <mxRectangle width="150" height="30" as="alternateBounds" />
          </mxGeometry>
        </mxCell>
        <mxCell id="Eok7o8EGHVfPVGbyOx8k-105" value="palavra-chave" style="shape=table;startSize=30;container=1;collapsible=1;childLayout=tableLayout;fixedRows=1;rowLines=0;fontStyle=1;align=center;resizeLast=1;html=1;labelBackgroundColor=none;fillColor=#F5AB50;strokeColor=default;fontColor=#1A1A1A;" vertex="1" parent="1">
          <mxGeometry x="360" y="500" width="180" height="90" as="geometry" />
        </mxCell>
        <mxCell id="Eok7o8EGHVfPVGbyOx8k-106" value="" style="shape=tableRow;horizontal=0;startSize=0;swimlaneHead=0;swimlaneBody=0;fillColor=none;collapsible=0;dropTarget=0;points=[[0,0.5],[1,0.5]];portConstraint=eastwest;top=0;left=0;right=0;bottom=1;labelBackgroundColor=none;strokeColor=default;fontColor=#1A1A1A;" vertex="1" parent="Eok7o8EGHVfPVGbyOx8k-105">
          <mxGeometry y="30" width="180" height="30" as="geometry" />
        </mxCell>
        <mxCell id="Eok7o8EGHVfPVGbyOx8k-107" value="PK" style="shape=partialRectangle;connectable=0;fillColor=none;top=0;left=0;bottom=0;right=0;fontStyle=1;overflow=hidden;whiteSpace=wrap;html=1;labelBackgroundColor=none;strokeColor=default;fontColor=#1A1A1A;" vertex="1" parent="Eok7o8EGHVfPVGbyOx8k-106">
          <mxGeometry width="30" height="30" as="geometry">
            <mxRectangle width="30" height="30" as="alternateBounds" />
          </mxGeometry>
        </mxCell>
        <mxCell id="Eok7o8EGHVfPVGbyOx8k-108" value="palavra_id" style="shape=partialRectangle;connectable=0;fillColor=none;top=0;left=0;bottom=0;right=0;align=left;spacingLeft=6;fontStyle=5;overflow=hidden;whiteSpace=wrap;html=1;labelBackgroundColor=none;strokeColor=default;fontColor=#1A1A1A;" vertex="1" parent="Eok7o8EGHVfPVGbyOx8k-106">
          <mxGeometry x="30" width="150" height="30" as="geometry">
            <mxRectangle width="150" height="30" as="alternateBounds" />
          </mxGeometry>
        </mxCell>
        <mxCell id="Eok7o8EGHVfPVGbyOx8k-109" value="" style="shape=tableRow;horizontal=0;startSize=0;swimlaneHead=0;swimlaneBody=0;fillColor=none;collapsible=0;dropTarget=0;points=[[0,0.5],[1,0.5]];portConstraint=eastwest;top=0;left=0;right=0;bottom=0;labelBackgroundColor=none;strokeColor=default;fontColor=#1A1A1A;" vertex="1" parent="Eok7o8EGHVfPVGbyOx8k-105">
          <mxGeometry y="60" width="180" height="30" as="geometry" />
        </mxCell>
        <mxCell id="Eok7o8EGHVfPVGbyOx8k-110" value="" style="shape=partialRectangle;connectable=0;fillColor=none;top=0;left=0;bottom=0;right=0;editable=1;overflow=hidden;whiteSpace=wrap;html=1;labelBackgroundColor=none;strokeColor=default;fontColor=#1A1A1A;" vertex="1" parent="Eok7o8EGHVfPVGbyOx8k-109">
          <mxGeometry width="30" height="30" as="geometry">
            <mxRectangle width="30" height="30" as="alternateBounds" />
          </mxGeometry>
        </mxCell>
        <mxCell id="Eok7o8EGHVfPVGbyOx8k-111" value="palavra_descricao" style="shape=partialRectangle;connectable=0;fillColor=none;top=0;left=0;bottom=0;right=0;align=left;spacingLeft=6;overflow=hidden;whiteSpace=wrap;html=1;labelBackgroundColor=none;strokeColor=default;fontColor=#1A1A1A;" vertex="1" parent="Eok7o8EGHVfPVGbyOx8k-109">
          <mxGeometry x="30" width="150" height="30" as="geometry">
            <mxRectangle width="150" height="30" as="alternateBounds" />
          </mxGeometry>
        </mxCell>
        <mxCell id="Eok7o8EGHVfPVGbyOx8k-119" value="" style="edgeStyle=entityRelationEdgeStyle;fontSize=12;html=1;endArrow=ERoneToMany;startArrow=ERmandOne;rounded=0;strokeColor=default;fontColor=#1A1A1A;" edge="1" parent="1" source="Eok7o8EGHVfPVGbyOx8k-14" target="Eok7o8EGHVfPVGbyOx8k-1">
          <mxGeometry width="100" height="100" relative="1" as="geometry">
            <mxPoint x="460" y="540" as="sourcePoint" />
            <mxPoint x="560" y="440" as="targetPoint" />
          </mxGeometry>
        </mxCell>
        <mxCell id="Eok7o8EGHVfPVGbyOx8k-125" value="" style="edgeStyle=entityRelationEdgeStyle;fontSize=12;html=1;endArrow=ERzeroToMany;startArrow=ERmandOne;rounded=0;strokeColor=default;fontColor=#1A1A1A;endFill=0;" edge="1" parent="1" source="Eok7o8EGHVfPVGbyOx8k-66" target="Eok7o8EGHVfPVGbyOx8k-53">
          <mxGeometry width="100" height="100" relative="1" as="geometry">
            <mxPoint x="715" y="480" as="sourcePoint" />
            <mxPoint x="815" y="380" as="targetPoint" />
          </mxGeometry>
        </mxCell>
        <mxCell id="Eok7o8EGHVfPVGbyOx8k-126" value="" style="edgeStyle=entityRelationEdgeStyle;fontSize=12;html=1;endArrow=ERzeroToMany;startArrow=ERmandOne;rounded=0;strokeColor=default;fontColor=#1A1A1A;endFill=0;" edge="1" parent="1" source="Eok7o8EGHVfPVGbyOx8k-66" target="Eok7o8EGHVfPVGbyOx8k-79">
          <mxGeometry width="100" height="100" relative="1" as="geometry">
            <mxPoint x="755" y="450" as="sourcePoint" />
            <mxPoint x="845" y="380" as="targetPoint" />
          </mxGeometry>
        </mxCell>
        <mxCell id="Eok7o8EGHVfPVGbyOx8k-127" value="" style="edgeStyle=entityRelationEdgeStyle;fontSize=12;html=1;endArrow=ERoneToMany;startArrow=ERoneToMany;rounded=0;strokeColor=default;fontColor=#1A1A1A;entryX=0;entryY=0.5;entryDx=0;entryDy=0;" edge="1" parent="1" source="Eok7o8EGHVfPVGbyOx8k-105" target="Eok7o8EGHVfPVGbyOx8k-5">
          <mxGeometry width="100" height="100" relative="1" as="geometry">
            <mxPoint x="650" y="500" as="sourcePoint" />
            <mxPoint x="750" y="400" as="targetPoint" />
          </mxGeometry>
        </mxCell>
        <mxCell id="Eok7o8EGHVfPVGbyOx8k-128" value="" style="edgeStyle=entityRelationEdgeStyle;fontSize=12;html=1;endArrow=ERoneToMany;startArrow=ERmandOne;rounded=0;strokeColor=default;fontColor=#1A1A1A;exitX=1;exitY=0.25;exitDx=0;exitDy=0;" edge="1" parent="1" source="Eok7o8EGHVfPVGbyOx8k-1" target="Eok7o8EGHVfPVGbyOx8k-40">
          <mxGeometry width="100" height="100" relative="1" as="geometry">
            <mxPoint x="840" y="640" as="sourcePoint" />
            <mxPoint x="940" y="540" as="targetPoint" />
          </mxGeometry>
        </mxCell>
        <mxCell id="Eok7o8EGHVfPVGbyOx8k-129" value="" style="edgeStyle=entityRelationEdgeStyle;fontSize=12;html=1;endArrow=ERoneToMany;startArrow=ERoneToMany;rounded=0;strokeColor=default;fontColor=#1A1A1A;entryX=1;entryY=0.5;entryDx=0;entryDy=0;" edge="1" parent="1" source="Eok7o8EGHVfPVGbyOx8k-92" target="Eok7o8EGHVfPVGbyOx8k-5">
          <mxGeometry width="100" height="100" relative="1" as="geometry">
            <mxPoint x="680" y="500" as="sourcePoint" />
            <mxPoint x="780" y="400" as="targetPoint" />
            <Array as="points">
              <mxPoint x="620" y="490" />
              <mxPoint x="800" y="540" />
            </Array>
          </mxGeometry>
        </mxCell>
        <mxCell id="Eok7o8EGHVfPVGbyOx8k-131" value="prateleira" style="shape=table;startSize=30;container=1;collapsible=1;childLayout=tableLayout;fixedRows=1;rowLines=0;fontStyle=1;align=center;resizeLast=1;html=1;labelBackgroundColor=none;fillColor=#F5AB50;strokeColor=default;fontColor=#1A1A1A;" vertex="1" parent="1">
          <mxGeometry x="360" y="230" width="180" height="120" as="geometry" />
        </mxCell>
        <mxCell id="Eok7o8EGHVfPVGbyOx8k-132" value="" style="shape=tableRow;horizontal=0;startSize=0;swimlaneHead=0;swimlaneBody=0;fillColor=none;collapsible=0;dropTarget=0;points=[[0,0.5],[1,0.5]];portConstraint=eastwest;top=0;left=0;right=0;bottom=1;labelBackgroundColor=none;strokeColor=default;fontColor=#1A1A1A;" vertex="1" parent="Eok7o8EGHVfPVGbyOx8k-131">
          <mxGeometry y="30" width="180" height="30" as="geometry" />
        </mxCell>
        <mxCell id="Eok7o8EGHVfPVGbyOx8k-133" value="PK" style="shape=partialRectangle;connectable=0;fillColor=none;top=0;left=0;bottom=0;right=0;fontStyle=1;overflow=hidden;whiteSpace=wrap;html=1;labelBackgroundColor=none;strokeColor=default;fontColor=#1A1A1A;" vertex="1" parent="Eok7o8EGHVfPVGbyOx8k-132">
          <mxGeometry width="30" height="30" as="geometry">
            <mxRectangle width="30" height="30" as="alternateBounds" />
          </mxGeometry>
        </mxCell>
        <mxCell id="Eok7o8EGHVfPVGbyOx8k-134" value="prateleira_id" style="shape=partialRectangle;connectable=0;fillColor=none;top=0;left=0;bottom=0;right=0;align=left;spacingLeft=6;fontStyle=5;overflow=hidden;whiteSpace=wrap;html=1;labelBackgroundColor=none;strokeColor=default;fontColor=#1A1A1A;" vertex="1" parent="Eok7o8EGHVfPVGbyOx8k-132">
          <mxGeometry x="30" width="150" height="30" as="geometry">
            <mxRectangle width="150" height="30" as="alternateBounds" />
          </mxGeometry>
        </mxCell>
        <mxCell id="Eok7o8EGHVfPVGbyOx8k-135" value="" style="shape=tableRow;horizontal=0;startSize=0;swimlaneHead=0;swimlaneBody=0;fillColor=none;collapsible=0;dropTarget=0;points=[[0,0.5],[1,0.5]];portConstraint=eastwest;top=0;left=0;right=0;bottom=0;labelBackgroundColor=none;strokeColor=default;fontColor=#1A1A1A;" vertex="1" parent="Eok7o8EGHVfPVGbyOx8k-131">
          <mxGeometry y="60" width="180" height="30" as="geometry" />
        </mxCell>
        <mxCell id="Eok7o8EGHVfPVGbyOx8k-136" value="" style="shape=partialRectangle;connectable=0;fillColor=none;top=0;left=0;bottom=0;right=0;editable=1;overflow=hidden;whiteSpace=wrap;html=1;labelBackgroundColor=none;strokeColor=default;fontColor=#1A1A1A;" vertex="1" parent="Eok7o8EGHVfPVGbyOx8k-135">
          <mxGeometry width="30" height="30" as="geometry">
            <mxRectangle width="30" height="30" as="alternateBounds" />
          </mxGeometry>
        </mxCell>
        <mxCell id="Eok7o8EGHVfPVGbyOx8k-137" value="prateleira_nome" style="shape=partialRectangle;connectable=0;fillColor=none;top=0;left=0;bottom=0;right=0;align=left;spacingLeft=6;overflow=hidden;whiteSpace=wrap;html=1;labelBackgroundColor=none;strokeColor=default;fontColor=#1A1A1A;" vertex="1" parent="Eok7o8EGHVfPVGbyOx8k-135">
          <mxGeometry x="30" width="150" height="30" as="geometry">
            <mxRectangle width="150" height="30" as="alternateBounds" />
          </mxGeometry>
        </mxCell>
        <mxCell id="Eok7o8EGHVfPVGbyOx8k-138" value="" style="shape=tableRow;horizontal=0;startSize=0;swimlaneHead=0;swimlaneBody=0;fillColor=none;collapsible=0;dropTarget=0;points=[[0,0.5],[1,0.5]];portConstraint=eastwest;top=0;left=0;right=0;bottom=0;labelBackgroundColor=none;strokeColor=default;fontColor=#1A1A1A;" vertex="1" parent="Eok7o8EGHVfPVGbyOx8k-131">
          <mxGeometry y="90" width="180" height="30" as="geometry" />
        </mxCell>
        <mxCell id="Eok7o8EGHVfPVGbyOx8k-139" value="" style="shape=partialRectangle;connectable=0;fillColor=none;top=0;left=0;bottom=0;right=0;editable=1;overflow=hidden;whiteSpace=wrap;html=1;labelBackgroundColor=none;strokeColor=default;fontColor=#1A1A1A;" vertex="1" parent="Eok7o8EGHVfPVGbyOx8k-138">
          <mxGeometry width="30" height="30" as="geometry">
            <mxRectangle width="30" height="30" as="alternateBounds" />
          </mxGeometry>
        </mxCell>
        <mxCell id="Eok7o8EGHVfPVGbyOx8k-140" value="prateleira_local" style="shape=partialRectangle;connectable=0;fillColor=none;top=0;left=0;bottom=0;right=0;align=left;spacingLeft=6;overflow=hidden;whiteSpace=wrap;html=1;labelBackgroundColor=none;strokeColor=default;fontColor=#1A1A1A;" vertex="1" parent="Eok7o8EGHVfPVGbyOx8k-138">
          <mxGeometry x="30" width="150" height="30" as="geometry">
            <mxRectangle width="150" height="30" as="alternateBounds" />
          </mxGeometry>
        </mxCell>
        <mxCell id="Eok7o8EGHVfPVGbyOx8k-141" value="" style="edgeStyle=entityRelationEdgeStyle;fontSize=12;html=1;endArrow=ERoneToMany;startArrow=ERmandOne;rounded=0;strokeColor=default;fontColor=#1A1A1A;exitX=1;exitY=0.25;exitDx=0;exitDy=0;" edge="1" parent="1" source="Eok7o8EGHVfPVGbyOx8k-14" target="Eok7o8EGHVfPVGbyOx8k-131">
          <mxGeometry width="100" height="100" relative="1" as="geometry">
            <mxPoint x="280" y="310" as="sourcePoint" />
            <mxPoint x="380" y="210" as="targetPoint" />
          </mxGeometry>
        </mxCell>
        <mxCell id="Eok7o8EGHVfPVGbyOx8k-142" value="" style="edgeStyle=entityRelationEdgeStyle;fontSize=12;html=1;endArrow=ERoneToMany;startArrow=ERmandOne;rounded=0;strokeColor=#182E3E;fontColor=#1A1A1A;exitX=1;exitY=0.5;exitDx=0;exitDy=0;" edge="1" parent="1" source="Eok7o8EGHVfPVGbyOx8k-132" target="Eok7o8EGHVfPVGbyOx8k-40">
          <mxGeometry width="100" height="100" relative="1" as="geometry">
            <mxPoint x="210" y="290" as="sourcePoint" />
            <mxPoint x="310" y="190" as="targetPoint" />
            <Array as="points">
              <mxPoint x="260" y="240" />
            </Array>
          </mxGeometry>
        </mxCell>
        <mxCell id="Eok7o8EGHVfPVGbyOx8k-144" value="" style="edgeStyle=entityRelationEdgeStyle;fontSize=12;html=1;endArrow=ERzeroToMany;endFill=1;startArrow=ERoneToMany;rounded=0;strokeColor=#182E3E;fontColor=#1A1A1A;exitX=1;exitY=0.5;exitDx=0;exitDy=0;startFill=0;" edge="1" parent="1" source="Eok7o8EGHVfPVGbyOx8k-2" target="Eok7o8EGHVfPVGbyOx8k-79">
          <mxGeometry width="100" height="100" relative="1" as="geometry">
            <mxPoint x="940" y="410" as="sourcePoint" />
            <mxPoint x="1040" y="310" as="targetPoint" />
          </mxGeometry>
        </mxCell>
        <mxCell id="Eok7o8EGHVfPVGbyOx8k-79" value="reserva" style="shape=table;startSize=30;container=1;collapsible=1;childLayout=tableLayout;fixedRows=1;rowLines=0;fontStyle=1;align=center;resizeLast=1;html=1;labelBackgroundColor=none;fillColor=#F5AB50;strokeColor=default;fontColor=#1A1A1A;" vertex="1" parent="1">
          <mxGeometry x="890" y="340" width="180" height="90" as="geometry" />
        </mxCell>
        <mxCell id="Eok7o8EGHVfPVGbyOx8k-80" value="" style="shape=tableRow;horizontal=0;startSize=0;swimlaneHead=0;swimlaneBody=0;fillColor=none;collapsible=0;dropTarget=0;points=[[0,0.5],[1,0.5]];portConstraint=eastwest;top=0;left=0;right=0;bottom=1;labelBackgroundColor=none;strokeColor=default;fontColor=#1A1A1A;" vertex="1" parent="Eok7o8EGHVfPVGbyOx8k-79">
          <mxGeometry y="30" width="180" height="30" as="geometry" />
        </mxCell>
        <mxCell id="Eok7o8EGHVfPVGbyOx8k-81" value="PK" style="shape=partialRectangle;connectable=0;fillColor=none;top=0;left=0;bottom=0;right=0;fontStyle=1;overflow=hidden;whiteSpace=wrap;html=1;labelBackgroundColor=none;strokeColor=default;fontColor=#1A1A1A;" vertex="1" parent="Eok7o8EGHVfPVGbyOx8k-80">
          <mxGeometry width="30" height="30" as="geometry">
            <mxRectangle width="30" height="30" as="alternateBounds" />
          </mxGeometry>
        </mxCell>
        <mxCell id="Eok7o8EGHVfPVGbyOx8k-82" value="reserva_id" style="shape=partialRectangle;connectable=0;fillColor=none;top=0;left=0;bottom=0;right=0;align=left;spacingLeft=6;fontStyle=5;overflow=hidden;whiteSpace=wrap;html=1;labelBackgroundColor=none;strokeColor=default;fontColor=#1A1A1A;" vertex="1" parent="Eok7o8EGHVfPVGbyOx8k-80">
          <mxGeometry x="30" width="150" height="30" as="geometry">
            <mxRectangle width="150" height="30" as="alternateBounds" />
          </mxGeometry>
        </mxCell>
        <mxCell id="Eok7o8EGHVfPVGbyOx8k-83" value="" style="shape=tableRow;horizontal=0;startSize=0;swimlaneHead=0;swimlaneBody=0;fillColor=none;collapsible=0;dropTarget=0;points=[[0,0.5],[1,0.5]];portConstraint=eastwest;top=0;left=0;right=0;bottom=0;labelBackgroundColor=none;strokeColor=default;fontColor=#1A1A1A;" vertex="1" parent="Eok7o8EGHVfPVGbyOx8k-79">
          <mxGeometry y="60" width="180" height="30" as="geometry" />
        </mxCell>
        <mxCell id="Eok7o8EGHVfPVGbyOx8k-84" value="" style="shape=partialRectangle;connectable=0;fillColor=none;top=0;left=0;bottom=0;right=0;editable=1;overflow=hidden;whiteSpace=wrap;html=1;labelBackgroundColor=none;strokeColor=default;fontColor=#1A1A1A;" vertex="1" parent="Eok7o8EGHVfPVGbyOx8k-83">
          <mxGeometry width="30" height="30" as="geometry">
            <mxRectangle width="30" height="30" as="alternateBounds" />
          </mxGeometry>
        </mxCell>
        <mxCell id="Eok7o8EGHVfPVGbyOx8k-85" value="reserva_data" style="shape=partialRectangle;connectable=0;fillColor=none;top=0;left=0;bottom=0;right=0;align=left;spacingLeft=6;overflow=hidden;whiteSpace=wrap;html=1;labelBackgroundColor=none;strokeColor=default;fontColor=#1A1A1A;" vertex="1" parent="Eok7o8EGHVfPVGbyOx8k-83">
          <mxGeometry x="30" width="150" height="30" as="geometry">
            <mxRectangle width="150" height="30" as="alternateBounds" />
          </mxGeometry>
        </mxCell>
        <mxCell id="Eok7o8EGHVfPVGbyOx8k-149" value="" style="edgeStyle=entityRelationEdgeStyle;fontSize=12;html=1;endArrow=ERzeroToMany;startArrow=ERmandOne;rounded=0;strokeColor=#182E3E;fontColor=#1A1A1A;exitX=1;exitY=0.5;exitDx=0;exitDy=0;" edge="1" parent="1" source="Eok7o8EGHVfPVGbyOx8k-41" target="Eok7o8EGHVfPVGbyOx8k-53">
          <mxGeometry width="100" height="100" relative="1" as="geometry">
            <mxPoint x="780" y="430" as="sourcePoint" />
            <mxPoint x="880" y="330" as="targetPoint" />
          </mxGeometry>
        </mxCell>
      </root>
    </mxGraphModel>
  </diagram>
</mxfile>
